<svg width="87" height="80" viewBox="0 0 87 80" fill="none" xmlns="http://www.w3.org/2000/svg">
<path d="M76.487 22.4865C76.487 22.0541 76.487 21.6216 76.487 21.1892C76.487 11.964 68.9915 4.46847 59.7663 4.46847C56.3068 4.46847 52.9915 5.47748 50.3969 7.35135C46.2167 2.88288 40.3068 0 33.8203 0C21.424 0 11.478 9.94594 11.3339 22.3423C4.99152 24.6486 0.378906 30.8468 0.378906 38.0541C0.378906 47.2793 7.8744 54.7748 17.0996 54.7748H70.1447C79.3699 54.7748 86.8654 47.2793 86.8654 38.0541C86.8654 30.991 82.5411 25.0811 76.487 22.4865Z" fill="black"/>
<path d="M42.1802 79.5677C41.4595 79.2794 22 72.3605 22 53.91V36.901L43.6216 27.6758L65.2432 36.901V53.91C65.2432 72.3605 45.7838 79.2794 45.0631 79.5677L43.6216 80.0001L42.1802 79.5677Z" fill="#98FF38"/>
<path d="M43.6215 32.4326L26.3242 39.784V53.9101C26.3242 69.4777 43.6215 75.3876 43.6215 75.3876C43.6215 75.3876 60.9188 69.4777 60.9188 53.9101C60.9188 45.5497 60.9188 39.784 60.9188 39.784L43.6215 32.4326Z" fill="black"/>
<path d="M37.2793 52.4684L42.4685 57.6576L49.964 50.1621" stroke="#98FF38" stroke-width="3" stroke-miterlimit="10"/>
</svg>
