<svg width="66" height="80" viewBox="0 0 66 80" fill="none" xmlns="http://www.w3.org/2000/svg">
<path d="M59.9415 29.5039C59.9415 12.0501 44.8859 -1.8064 27.0324 0.192123C13.8421 1.65771 3.05009 12.0501 1.1848 25.2403C-0.547259 37.0983 4.91539 47.8903 13.8421 54.0191L11.5771 80H44.0865V65.6106H53.8127C55.8112 65.6106 57.5433 64.0118 57.5433 61.88V48.9562L65.6706 45.8918L59.9415 29.5039Z" fill="black"/>
<path d="M22.3711 18.0459H41.024V36.6988H22.3711V18.0459Z" fill="black"/>
<path d="M22.3711 18.0464H41.024V36.6993H22.3711V18.0464Z" stroke="#98FF38" stroke-width="3" stroke-miterlimit="10" stroke-linecap="round" stroke-linejoin="round"/>
<path d="M27.0332 18.0462V12.7168" stroke="#98FF38" stroke-width="3" stroke-miterlimit="10" stroke-linecap="round" stroke-linejoin="round"/>
<path d="M36.4922 18.0462V12.7168" stroke="#98FF38" stroke-width="3" stroke-miterlimit="10" stroke-linecap="round" stroke-linejoin="round"/>
<path d="M27.0332 41.8953V36.5659" stroke="#98FF38" stroke-width="3" stroke-miterlimit="10" stroke-linecap="round" stroke-linejoin="round"/>
<path d="M36.4922 41.8953V36.5659" stroke="#98FF38" stroke-width="3" stroke-miterlimit="10" stroke-linecap="round" stroke-linejoin="round"/>
<path d="M41.0234 22.5762H46.2196" stroke="#98FF38" stroke-width="3" stroke-miterlimit="10" stroke-linecap="round" stroke-linejoin="round"/>
<path d="M41.0234 32.0361H46.2196" stroke="#98FF38" stroke-width="3" stroke-miterlimit="10" stroke-linecap="round" stroke-linejoin="round"/>
<path d="M17.1738 22.5762H22.37" stroke="#98FF38" stroke-width="3" stroke-miterlimit="10" stroke-linecap="round" stroke-linejoin="round"/>
<path d="M17.1738 32.0361H22.37" stroke="#98FF38" stroke-width="3" stroke-miterlimit="10" stroke-linecap="round" stroke-linejoin="round"/>
</svg>
