<svg width="90" height="90" viewBox="0 0 90 90" fill="none" xmlns="http://www.w3.org/2000/svg">
<g filter="url(#filter0_d_236_927)">
<rect x="20" y="20" width="50" height="50" rx="25" fill="#98FF38" shape-rendering="crispEdges"/>
<g clip-path="url(#clip0_236_927)">
<g clip-path="url(#clip1_236_927)">
<g clip-path="url(#clip2_236_927)">
<path d="M42.667 33.9692L36.4824 37.5231" stroke="black" stroke-width="1.125" stroke-miterlimit="10" stroke-linecap="round" stroke-linejoin="round"/>
<path d="M53.3746 37.5231L47.1899 33.9692" stroke="black" stroke-width="1.125" stroke-miterlimit="10" stroke-linecap="round" stroke-linejoin="round"/>
<path d="M55.6362 48.5077V41.4923" stroke="black" stroke-width="1.125" stroke-miterlimit="10" stroke-linecap="round" stroke-linejoin="round"/>
<path d="M47.1899 56.0308L53.3746 52.4769" stroke="black" stroke-width="1.125" stroke-miterlimit="10" stroke-linecap="round" stroke-linejoin="round"/>
<path d="M36.4824 52.4769L42.667 56.0308" stroke="black" stroke-width="1.125" stroke-miterlimit="10" stroke-linecap="round" stroke-linejoin="round"/>
<path d="M34.2212 41.4923V48.5077" stroke="black" stroke-width="1.125" stroke-miterlimit="10" stroke-linecap="round" stroke-linejoin="round"/>
<path d="M38.7898 45.8767L35.9282 49.1536" stroke="black" stroke-width="1.125" stroke-miterlimit="10" stroke-linecap="round" stroke-linejoin="round"/>
<path d="M36.2979 40.5231L38.421 42.2308" stroke="black" stroke-width="1.125" stroke-miterlimit="10" stroke-linecap="round" stroke-linejoin="round"/>
<path d="M44.0984 54.8768L41.3291 46.3845" stroke="black" stroke-width="1.125" stroke-miterlimit="10" stroke-linecap="round" stroke-linejoin="round"/>
<path d="M48.2518 48.9692L45.8979 54.9231" stroke="black" stroke-width="1.125" stroke-miterlimit="10" stroke-linecap="round" stroke-linejoin="round"/>
<path d="M43.0366 44.6306L46.6827 45.7383" stroke="black" stroke-width="1.125" stroke-miterlimit="10" stroke-linecap="round" stroke-linejoin="round"/>
<path d="M50.9282 44.4922L53.9282 40.8922" stroke="black" stroke-width="1.125" stroke-miterlimit="10" stroke-linecap="round" stroke-linejoin="round"/>
<path d="M53.5125 49.6154L51.3433 48.0461" stroke="black" stroke-width="1.125" stroke-miterlimit="10" stroke-linecap="round" stroke-linejoin="round"/>
<path d="M43.9593 35.0768L41.4209 41.4922" stroke="black" stroke-width="1.125" stroke-miterlimit="10" stroke-linecap="round" stroke-linejoin="round"/>
<path d="M48.4367 43.9844L45.7598 35.2614" stroke="black" stroke-width="1.125" stroke-miterlimit="10" stroke-linecap="round" stroke-linejoin="round"/>
<path d="M43.0366 44.6306L46.6827 45.7383" stroke="black" stroke-width="1.125" stroke-miterlimit="10" stroke-linecap="round" stroke-linejoin="round"/>
<path d="M44.9281 35.2615C46.381 35.2615 47.5589 34.0837 47.5589 32.6308C47.5589 31.1778 46.381 30 44.9281 30C43.4752 30 42.2974 31.1778 42.2974 32.6308C42.2974 34.0837 43.4752 35.2615 44.9281 35.2615Z" fill="black"/>
<path d="M44.9281 60C46.381 60 47.5589 58.8221 47.5589 57.3692C47.5589 55.9162 46.381 54.7384 44.9281 54.7384C43.4752 54.7384 42.2974 55.9162 42.2974 57.3692C42.2974 58.8221 43.4752 60 44.9281 60Z" fill="black"/>
<path d="M40.4975 46.5231C41.9504 46.5231 43.1282 45.3453 43.1282 43.8923C43.1282 42.4394 41.9504 41.2616 40.4975 41.2616C39.0445 41.2616 37.8667 42.4394 37.8667 43.8923C37.8667 45.3453 39.0445 46.5231 40.4975 46.5231Z" fill="black"/>
<path d="M49.2206 49.154C50.6736 49.154 51.8514 47.9762 51.8514 46.5232C51.8514 45.0703 50.6736 43.8925 49.2206 43.8925C47.7677 43.8925 46.5898 45.0703 46.5898 46.5232C46.5898 47.9762 47.7677 49.154 49.2206 49.154Z" fill="black"/>
<path d="M34.2206 41.4923C35.6735 41.4923 36.8514 40.3144 36.8514 38.8615C36.8514 37.4086 35.6735 36.2307 34.2206 36.2307C32.7677 36.2307 31.5898 37.4086 31.5898 38.8615C31.5898 40.3144 32.7677 41.4923 34.2206 41.4923Z" fill="black"/>
<path d="M34.2206 53.7692C35.6735 53.7692 36.8514 52.5914 36.8514 51.1385C36.8514 49.6855 35.6735 48.5077 34.2206 48.5077C32.7677 48.5077 31.5898 49.6855 31.5898 51.1385C31.5898 52.5914 32.7677 53.7692 34.2206 53.7692Z" fill="black"/>
<path d="M55.6361 41.4923C57.089 41.4923 58.2669 40.3144 58.2669 38.8615C58.2669 37.4086 57.089 36.2307 55.6361 36.2307C54.1832 36.2307 53.0054 37.4086 53.0054 38.8615C53.0054 40.3144 54.1832 41.4923 55.6361 41.4923Z" fill="black"/>
<path d="M55.6361 53.7692C57.089 53.7692 58.2669 52.5914 58.2669 51.1385C58.2669 49.6855 57.089 48.5077 55.6361 48.5077C54.1832 48.5077 53.0054 49.6855 53.0054 51.1385C53.0054 52.5914 54.1832 53.7692 55.6361 53.7692Z" fill="black"/>
</g>
</g>
</g>
</g>
<defs>
<filter id="filter0_d_236_927" x="0" y="0" width="90" height="90" filterUnits="userSpaceOnUse" color-interpolation-filters="sRGB">
<feFlood flood-opacity="0" result="BackgroundImageFix"/>
<feColorMatrix in="SourceAlpha" type="matrix" values="0 0 0 0 0 0 0 0 0 0 0 0 0 0 0 0 0 0 127 0" result="hardAlpha"/>
<feOffset/>
<feGaussianBlur stdDeviation="10"/>
<feComposite in2="hardAlpha" operator="out"/>
<feColorMatrix type="matrix" values="0 0 0 0 0.854902 0 0 0 0 0.917647 0 0 0 0 0.411765 0 0 0 0.65 0"/>
<feBlend mode="normal" in2="BackgroundImageFix" result="effect1_dropShadow_236_927"/>
<feBlend mode="normal" in="SourceGraphic" in2="effect1_dropShadow_236_927" result="shape"/>
</filter>
<clipPath id="clip0_236_927">
<rect width="27" height="30" fill="white" transform="translate(31.5 30)"/>
</clipPath>
<clipPath id="clip1_236_927">
<rect width="27" height="30" fill="white" transform="translate(31.5 30)"/>
</clipPath>
<clipPath id="clip2_236_927">
<rect width="27" height="30" fill="white" transform="translate(31.5 30)"/>
</clipPath>
</defs>
</svg>
