<svg width="51" height="50" viewBox="0 0 51 50" fill="none" xmlns="http://www.w3.org/2000/svg">
<path d="M27.8356 40.1396C27.8805 35.5503 26.717 31.8183 25.237 31.8038C23.7569 31.7894 22.5207 35.498 22.4759 40.0872C22.431 44.6765 23.5945 48.4086 25.0745 48.423C26.5546 48.4375 27.7908 44.7289 27.8356 40.1396Z" fill="#DAEA69"/>
<path d="M19.2527 39.0973C21.7718 35.2609 22.8109 31.4923 21.5737 30.6799C20.3364 29.8675 17.2913 32.3189 14.7723 36.1553C12.2532 39.9917 11.2141 43.7602 12.4513 44.5727C13.6886 45.3851 16.7336 42.9337 19.2527 39.0973Z" fill="#DAEA69"/>
<path d="M12.5829 33.5928C16.7763 31.7276 19.688 29.1192 19.0864 27.7668C18.4849 26.4144 14.5979 26.8302 10.4045 28.6955C6.21116 30.5607 3.29943 33.1691 3.90098 34.5215C4.50252 35.8739 8.38956 35.4581 12.5829 33.5928Z" fill="#DAEA69"/>
<path d="M18.5833 23.9743C18.8085 22.5114 15.3138 20.7595 10.7778 20.0613C6.24168 19.3631 2.38194 19.9831 2.15678 21.446C1.93162 22.9089 5.4263 24.6607 9.96238 25.3589C14.4984 26.0571 18.3582 25.4371 18.5833 23.9743Z" fill="#DAEA69"/>
<path d="M20.2128 20.4897C21.193 19.3807 19.1998 16.0178 15.7609 12.9785C12.322 9.93919 8.7396 8.37443 7.75942 9.48349C6.77924 10.5926 8.77244 13.9555 12.2114 16.9948C15.6503 20.0341 19.2327 21.5988 20.2128 20.4897Z" fill="#DAEA69"/>
<path d="M23.457 18.4526C24.8812 18.0496 25.0227 14.1429 23.7731 9.72682C22.5235 5.31073 20.3559 2.05749 18.9317 2.4605C17.5075 2.86351 17.366 6.77015 18.6156 11.1863C19.8652 15.6023 22.0328 18.8556 23.457 18.4526Z" fill="#DAEA69"/>
<path d="M32.2632 11.3238C33.5997 6.93317 33.5353 3.02449 32.1193 2.59348C30.7033 2.16246 28.472 5.37232 27.1355 9.76291C25.7991 14.1535 25.8635 18.0622 27.2795 18.4932C28.6955 18.9242 30.9268 15.7144 32.2632 11.3238Z" fill="#DAEA69"/>
<path d="M38.5552 17.2565C42.0529 14.285 44.1115 10.9617 43.1531 9.83369C42.1948 8.70569 38.5825 10.2002 35.0849 13.1716C31.5872 16.1431 29.5287 19.4664 30.487 20.5944C31.4453 21.7224 35.0576 20.228 38.5552 17.2565Z" fill="#DAEA69"/>
<path d="M40.6369 25.652C45.1859 25.0434 48.7144 23.3608 48.5181 21.8937C48.3219 20.4267 44.4751 19.7308 39.9261 20.3393C35.3772 20.9479 31.8486 22.6305 32.0449 24.0976C32.2412 25.5646 36.0879 26.2606 40.6369 25.652Z" fill="#DAEA69"/>
<path d="M46.5049 34.9408C47.133 33.6006 44.2733 30.9353 40.1175 28.9877C35.9618 27.0401 32.0837 26.5478 31.4556 27.888C30.8275 29.2283 33.6872 31.8936 37.843 33.8412C41.9987 35.7887 45.8768 36.2811 46.5049 34.9408Z" fill="#DAEA69"/>
<path d="M37.7627 44.8297C39.0157 44.0419 38.0511 40.2535 35.6082 36.3682C33.1653 32.4829 30.1691 29.972 28.9161 30.7598C27.6631 31.5476 28.6277 35.336 31.0706 39.2213C33.5135 43.1066 36.5097 45.6176 37.7627 44.8297Z" fill="#DAEA69"/>
</svg>
