<svg width="56" height="50" viewBox="0 0 56 50" fill="none" xmlns="http://www.w3.org/2000/svg">
<g clip-path="url(#clip0_28_127)">
<path d="M7.60194 37.7973C9.62848 39.2108 12.9141 39.2108 14.9407 37.7973C16.9672 36.3837 16.9672 34.0919 14.9407 32.6783C12.9141 31.2648 9.62848 31.2648 7.60194 32.6783C5.5754 34.0919 5.5754 36.3837 7.60194 37.7973Z" fill="#98FF38"/>
<path d="M28.6353 18.6016C31.6751 20.7219 36.6036 20.7219 39.6434 18.6016C42.6832 16.4812 42.6832 13.0435 39.6434 10.9232C36.6036 8.80293 31.6751 8.80293 28.6353 10.9232C25.5955 13.0435 25.5955 16.4812 28.6353 18.6016Z" fill="#98FF38"/>
<path d="M17.4702 28.1994C20.0033 29.9662 24.1104 29.9662 26.6436 28.1994C29.1768 26.4324 29.1768 23.5677 26.6436 21.8007C24.1104 20.0339 20.0033 20.0339 17.4702 21.8007C14.937 23.5677 14.937 26.4324 17.4702 28.1994Z" fill="#98FF38"/>
<path d="M1.18094 26.9195C2.70084 27.9796 5.16509 27.9796 6.685 26.9195C8.2049 25.8593 8.2049 24.1405 6.685 23.0803C5.16509 22.0201 2.70084 22.0201 1.18094 23.0803C-0.338961 24.1405 -0.33896 25.8593 1.18094 26.9195Z" fill="#98FF38"/>
<path d="M17.4702 7.72379C20.0033 9.49071 24.1104 9.49071 26.6436 7.72379C29.1768 5.95687 29.1768 3.09212 26.6436 1.3252C24.1104 -0.441731 20.0033 -0.441733 17.4702 1.3252C14.937 3.09212 14.937 5.95687 17.4702 7.72379Z" fill="#98FF38"/>
<path d="M7.60193 17.3216C9.62847 18.7352 12.9141 18.7352 14.9407 17.3216C16.9672 15.9081 16.9672 13.6162 14.9407 12.2027C12.9141 10.7892 9.62847 10.7892 7.60193 12.2027C5.57539 13.6162 5.5754 15.9081 7.60193 17.3216Z" fill="#98FF38"/>
<path d="M17.4702 48.675C20.0033 50.4418 24.1104 50.4418 26.6436 48.675C29.1768 46.908 29.1768 44.0433 26.6436 42.2763C24.1104 40.5095 20.0033 40.5095 17.4702 42.2763C14.937 44.0433 14.937 46.908 17.4702 48.675Z" fill="#98FF38"/>
<path d="M42.0161 28.8394C45.056 30.9597 49.9846 30.9597 53.0243 28.8394C56.0642 26.7191 56.0642 23.2814 53.0243 21.1611C49.9846 19.0407 45.056 19.0407 42.0161 21.1611C38.9764 23.2814 38.9764 26.7191 42.0161 28.8394Z" fill="#98FF38"/>
<path d="M28.6353 39.0771C31.6751 41.1975 36.6036 41.1975 39.6434 39.0771C42.6832 36.9568 42.6832 33.5192 39.6434 31.3988C36.6036 29.2785 31.6751 29.2785 28.6353 31.3988C25.5955 33.5192 25.5955 36.9568 28.6353 39.0771Z" fill="#98FF38"/>
</g>
<defs>
<clipPath id="clip0_28_127">
<rect width="55.2632" height="50" fill="white" transform="translate(0.0410156)"/>
</clipPath>
</defs>
</svg>
