<svg width="51" height="50" viewBox="0 0 51 50" fill="none" xmlns="http://www.w3.org/2000/svg">
<g clip-path="url(#clip0_24_84)">
<path fill-rule="evenodd" clip-rule="evenodd" d="M12.8965 0C19.8 0 25.3965 5.59644 25.3965 12.5V0H37.8965C44.8 0 50.3965 5.59644 50.3965 12.5C50.3965 19.4035 44.8 25 37.8965 25C44.8 25 50.3965 30.5965 50.3965 37.5C50.3965 40.9279 49.0166 44.0335 46.7821 46.2918L46.7354 46.3389L46.6939 46.3801C44.4351 48.6179 41.3272 50 37.8965 50C34.4891 50 31.4001 48.6366 29.1452 46.4256C29.116 46.3969 29.0867 46.3679 29.0576 46.3389C29.0302 46.3115 29.003 46.284 28.9759 46.2564C26.762 44.0011 25.3965 40.91 25.3965 37.5C25.3965 44.4035 19.8 50 12.8965 50C5.99292 50 0.396484 44.4035 0.396484 37.5V25H12.8965C5.99292 25 0.396484 19.4035 0.396484 12.5C0.396484 5.59644 5.99292 0 12.8965 0ZM22.8965 12.5C22.8965 18.0229 18.4194 22.5 12.8965 22.5V2.5C18.4194 2.5 22.8965 6.97715 22.8965 12.5ZM47.8965 37.5C47.8965 31.9771 43.4194 27.5 37.8965 27.5C32.3736 27.5 27.8965 31.9771 27.8965 37.5H47.8965ZM2.89648 27.5V37.5C2.89648 43.0229 7.37363 47.5 12.8965 47.5C18.4194 47.5 22.8965 43.0229 22.8965 37.5V27.5H2.89648ZM27.8965 22.5V2.5H37.8965C43.4194 2.5 47.8965 6.97715 47.8965 12.5C47.8965 18.0229 43.4194 22.5 37.8965 22.5H27.8965Z" fill="#FFAA00"/>
</g>
<defs>
<clipPath id="clip0_24_84">
<rect width="50" height="50" fill="white" transform="translate(0.396484)"/>
</clipPath>
</defs>
</svg>
