<svg width="192" height="249" viewBox="0 0 192 249" fill="none" xmlns="http://www.w3.org/2000/svg">
  <!-- Legs -->
  <path d="M102.203 214.481C110.195 214.481 116.685 222.214 116.685 231.739C116.685 241.264 110.195 248.998 102.203 248.998C94.2105 248.998 87.7212 241.264 87.7212 231.739C87.7212 222.214 94.2105 214.481 102.203 214.481Z" fill="url(#paint0_linear_713_855)"/>
  <path d="M101.753 214.062C107.827 214.062 112.759 219.94 112.759 227.179C112.759 234.418 107.827 240.295 101.753 240.295C95.6784 240.295 90.7466 234.418 90.7466 227.179C90.7466 219.94 95.6784 214.062 101.753 214.062Z" fill="#98FF37"/>

  <!-- Body -->
  <path d="M127.726 184.996L124.661 202.531C122.056 213.771 111.007 223.138 99.8358 223.138H88.8023C76.5427 222.838 64.8962 210.324 63.9767 201.631L61.3716 183.347C61.3716 172.421 77.6308 162.964 88.8023 162.964H99.8358C111.007 162.964 127.726 174.07 127.726 184.996Z" fill="url(#paint1_linear_713_855)"/>

  <!-- Head group -->
  <g class="bot-head">
    <path d="M93.7061 23.2832C137.547 23.2832 170.943 55.4159 174.925 94.6225C179.523 139.884 137.547 156.07 93.7061 156.07C49.8654 156.07 9.11537 139.584 13.7127 94.6225C17.7216 55.4183 49.8654 23.2832 93.7061 23.2832Z" fill="url(#paint2_linear_713_855)"/>
    <path d="M80.8098 44.8528C111.06 44.8528 134.951 67.6307 137.771 94.6763C141.306 128.582 111.043 123.737 80.7929 123.737C50.5428 123.737 21.469 129.481 25.3077 93.9272C28.2269 66.8915 50.5597 44.8528 80.8098 44.8528Z" fill="#4E862B"/>
    <!-- Eyes -->
    <path class="bot-eye" d="M51.7347 73.8789C56.432 73.8789 60.2399 80.6896 60.2399 89.0907C60.2399 97.4919 56.432 104.303 51.7347 104.303C47.0373 104.303 43.2295 97.4919 43.2295 89.0907C43.2295 80.6896 47.0373 73.8789 51.7347 73.8789Z" fill="#D9E969"/>
    <path class="bot-eye" d="M111.5 73.8789C116.197 73.8789 120.005 80.6896 120.005 89.0907C120.005 97.4919 116.197 104.303 111.5 104.303C106.802 104.303 102.995 97.4919 102.995 89.0907C102.995 80.6896 106.802 73.8789 111.5 73.8789Z" fill="#D9E969"/>
    <path d="M67.5957 101.68C67.5957 101.68 68.0555 115.543 82.6135 115.019C94.4909 114.59 95.4861 102.129 95.4861 102.129L67.5957 101.68Z" fill="#D9E969"/>
  </g>

  <!-- Antenna -->
  <path class="bot-antenna" d="M139.066 43.2911L159.218 3.5" stroke="#D9E969" stroke-width="5.10204" stroke-linecap="round"/>

  <!-- Eye sparkle / decoration -->
  <path d="M140.05 41.186C142.866 42.5836 144.334 45.2827 143.326 47.2095C142.318 49.1363 139.213 49.5659 136.397 48.1684C133.581 46.7708 132.113 44.0716 133.121 42.1449C134.129 40.2181 137.234 39.7884 140.05 41.186Z" fill="#98FF37"/>
  <path d="M140.05 41.186C142.866 42.5836 144.334 45.2827 143.326 47.2095C142.318 49.1363 139.213 49.5659 136.397 48.1684C133.581 46.7708 132.113 44.0716 133.121 42.1449C134.129 40.2181 137.234 39.7884 140.05 41.186Z" stroke="#173C29" stroke-width="0.318878"/>

  <!-- Antennae Ball -->
  <path d="M109.107 182.747C112.448 182.747 115.16 185.4 115.16 188.667C115.16 191.935 112.448 194.587 109.107 194.587C105.767 194.587 103.054 191.935 103.054 188.667C103.054 185.4 105.767 182.747 109.107 182.747Z" fill="#D9E969"/>

  <!-- Antennae tips (ears maybe) -->
  <path d="M21.6729 80.4943C30.215 80.4943 37.1506 87.2772 37.1506 95.6314C37.1506 103.986 30.215 110.768 21.6729 110.768C13.1308 110.768 6.19531 103.986 6.19531 95.6314C6.19531 87.2772 13.1308 80.4943 21.6729 80.4943Z" fill="#4E862B"/>
  <path d="M175.837 80.4943C184.379 80.4943 191.314 87.2772 191.314 95.6314C191.314 103.986 184.379 110.768 175.837 110.768C167.294 110.768 160.359 103.986 160.359 95.6314C160.359 87.2772 167.294 80.4943 175.837 80.4943Z" fill="#4E862B"/>

  <!-- Mouth or jaw -->
  <path d="M175.232 97.0204C175.232 97.0204 177.64 109.783 165.271 118.902C145.349 133.589 116.692 130.592 116.692 130.592" stroke="#D9E969" stroke-width="5.10204" stroke-linecap="round"/>
  <path d="M128.109 130.892H117.076" stroke="#D9E969" stroke-width="12.7551" stroke-linecap="round"/>

  <!-- Arms -->
  <path class="bot-arm" d="M158.557 164.688L175.746 186.967C180.621 193.03 182.804 200.095 178.547 204.621C174.913 208.485 166.871 206.309 159.965 201.871L137.043 186.477C130.896 180.671 130.728 171.087 136.669 165.07C142.61 159.054 152.41 158.883 158.557 164.688Z" fill="url(#paint3_linear_713_855)"/>
  <path class="bot-arm" d="M53.0984 185.936L29.4531 201.551C23.0079 205.993 15.6802 207.752 11.2787 203.356C7.52113 199.602 10.1617 191.862 15.0524 185.35L31.965 163.773C38.2134 158.075 48.0098 158.417 53.8455 164.537C59.6813 170.657 59.3468 180.238 53.0984 185.936Z" fill="url(#paint4_linear_713_855)"/>

  <!-- Gradients -->
  <defs>
    <linearGradient id="paint0_linear_713_855" x1="101.603" y1="215.286" x2="101.603" y2="252.486" gradientUnits="userSpaceOnUse">
      <stop stop-color="#143021"/>
      <stop offset="0.5" stop-color="#98FF38"/>
      <stop offset="1" stop-color="#143021"/>
    </linearGradient>
    <linearGradient id="paint1_linear_713_855" x1="35.4733" y1="189.192" x2="138.451" y2="191.699" gradientUnits="userSpaceOnUse">
      <stop stop-color="#143021"/>
      <stop offset="0.5" stop-color="#98FF38"/>
      <stop offset="1" stop-color="#143021"/>
    </linearGradient>
    <linearGradient id="paint2_linear_713_855" x1="-35.0189" y1="96.421" x2="150.713" y2="95.7942" gradientUnits="userSpaceOnUse">
      <stop stop-color="#143021"/>
      <stop offset="0.5" stop-color="#98FF38"/>
      <stop offset="1" stop-color="#143021"/>
    </linearGradient>
    <linearGradient id="paint3_linear_713_855" x1="126.049" y1="153.68" x2="179.335" y2="209.144" gradientUnits="userSpaceOnUse">
      <stop stop-color="#143021"/>
      <stop offset="0.5" stop-color="#98FF38"/>
      <stop offset="1" stop-color="#143021"/>
    </linearGradient>
    <linearGradient id="paint4_linear_713_855" x1="66.0292" y1="154.764" x2="8.91166" y2="206.422" gradientUnits="userSpaceOnUse">
      <stop stop-color="#143021"/>
      <stop offset="0.5" stop-color="#98FF38"/>
      <stop offset="1" stop-color="#143021"/>
    </linearGradient>
  </defs>
</svg>
