<svg width="75" height="76" viewBox="0 0 75 76" fill="none" xmlns="http://www.w3.org/2000/svg">
<mask id="path-1-inside-1_299_1349" fill="white">
<path d="M0 38C0 17.2893 16.7893 0.5 37.5 0.5C58.2107 0.5 75 17.2893 75 38C75 58.7107 58.2107 75.5 37.5 75.5C16.7893 75.5 0 58.7107 0 38Z"/>
</mask>
<path d="M0 38C0 17.2893 16.7893 0.5 37.5 0.5C58.2107 0.5 75 17.2893 75 38C75 58.7107 58.2107 75.5 37.5 75.5C16.7893 75.5 0 58.7107 0 38Z" fill="#98FF38"/>
<path d="M37.5 74.5C17.3416 74.5 1 58.1584 1 38H-1C-1 59.263 16.237 76.5 37.5 76.5V74.5ZM74 38C74 58.1584 57.6584 74.5 37.5 74.5V76.5C58.763 76.5 76 59.263 76 38H74ZM37.5 1.5C57.6584 1.5 74 17.8416 74 38H76C76 16.737 58.763 -0.5 37.5 -0.5V1.5ZM37.5 -0.5C16.237 -0.5 -1 16.737 -1 38H1C1 17.8416 17.3416 1.5 37.5 1.5V-0.5Z" fill="white" fill-opacity="0.15" mask="url(#path-1-inside-1_299_1349)"/>
<path d="M32.0312 35.0405C31.416 35.0405 30.9375 34.562 30.9375 33.9468V32.853C30.9375 32.3062 31.416 31.7593 32.0312 31.7593H42.9688C43.5156 31.7593 44.0625 32.3062 44.0625 32.853V33.9468C44.0625 34.562 43.5156 35.0405 42.9688 35.0405H32.0312ZM30.9375 40.5093V39.4155C30.9375 38.8687 31.416 38.3218 32.0312 38.3218H42.9688C43.5156 38.3218 44.0625 38.8687 44.0625 39.4155V40.5093C44.0625 41.1245 43.5156 41.603 42.9688 41.603H32.0312C31.416 41.603 30.9375 41.1245 30.9375 40.5093ZM37.5 48.8491C38.5938 48.8491 39.6875 48.5073 40.6445 47.7554L55 37.4331V51.9937C55 53.8394 53.4961 55.2749 51.7188 55.2749H23.2812C21.4355 55.2749 20 53.8394 20 51.9937V37.4331L34.2871 47.7554C35.2441 48.5073 36.3379 48.8491 37.5 48.8491ZM53.7012 31.4175C54.5215 32.1011 55 32.9897 55 34.0151V34.7671L48.4375 39.4839V26.8374H26.5625V39.4839L20 34.7671V34.0151C20 32.9897 20.4785 32.0327 21.2305 31.4175C21.8457 31.0073 22.3926 30.5288 23.2812 29.9136V26.8374C23.2812 25.0601 24.7168 23.5562 26.5625 23.5562H31.8262C32.0312 23.4194 32.2363 23.2827 32.4414 23.146C33.6035 22.3257 35.8594 20.2749 37.5 20.2749C39.0723 20.2749 41.3281 22.3257 42.4902 23.146C42.6953 23.2827 42.9004 23.4194 43.1055 23.5562H48.4375C50.2148 23.5562 51.7188 25.0601 51.7188 26.8374V29.9136C52.5391 30.5288 53.0859 31.0073 53.7012 31.4175Z" fill="black"/>
</svg>
